<?xml version="1.0" standalone="no"?>
<!DOCTYPE svg PUBLIC "-//W3C//DTD SVG 20010904//EN"
 "http://www.w3.org/TR/2001/REC-SVG-20010904/DTD/svg10.dtd">
<svg version="1.0" xmlns="http://www.w3.org/2000/svg"
 width="512.000000pt" height="512.000000pt" viewBox="0 0 512.000000 512.000000"
 preserveAspectRatio="xMidYMid meet">
<metadata>
Created by potrace 1.14, written by Peter Selinger 2001-2017
</metadata>
<g transform="translate(0.000000,512.000000) scale(0.100000,-0.100000)"
fill="#000000" stroke="none">
<path d="M2905 3500 c-62 -10 -125 -59 -157 -120 -7 -14 -15 -27 -19 -30 -3
-3 -13 -22 -22 -42 -10 -21 -22 -38 -27 -38 -5 0 -7 -7 -4 -15 4 -8 2 -15 -4
-15 -5 0 -15 -15 -23 -32 -7 -18 -16 -35 -19 -38 -4 -3 -20 -30 -36 -60 -16
-30 -32 -57 -37 -58 -4 -2 -5 -7 -2 -12 3 -4 -1 -10 -8 -13 -13 -5 -77 91 -77
114 0 5 -5 9 -11 9 -5 0 -8 4 -5 9 3 5 -1 14 -9 21 -8 7 -15 18 -15 25 0 8 -3
15 -7 17 -5 2 -17 21 -29 43 -69 132 -120 200 -156 207 -7 2 -16 8 -20 13 -5
6 -269 11 -748 13 -723 2 -742 2 -780 -18 -21 -11 -50 -31 -64 -45 -32 -32
-66 -104 -62 -131 2 -10 -1 -25 -7 -31 -5 -7 -6 -13 -1 -13 11 0 12 -80 1 -96
-3 -6 -4 -14 0 -18 10 -10 9 -66 -2 -66 -7 0 -7 -3 0 -8 12 -8 13 -42 2 -60
-5 -6 -4 -12 0 -12 11 0 11 -41 0 -57 -4 -6 -4 -14 1 -17 9 -6 8 -78 -2 -95
-4 -6 -3 -11 2 -11 10 0 9 -30 -2 -48 -4 -6 -3 -12 1 -12 11 0 11 -60 1 -76
-4 -6 -5 -14 -1 -18 10 -10 9 -66 -2 -66 -7 0 -7 -3 0 -8 12 -8 13 -42 2 -60
-5 -6 -4 -12 0 -12 11 0 11 -40 1 -56 -4 -6 -4 -14 -1 -18 10 -10 10 -86 0
-86 -5 0 -5 -6 -1 -12 11 -18 12 -48 2 -48 -5 0 -6 -6 -1 -12 12 -20 11 -98
-1 -98 -7 0 -8 -3 -1 -8 6 -4 10 -18 10 -32 0 -14 -4 -28 -10 -32 -7 -5 -6 -8
0 -8 12 0 13 -40 1 -58 -4 -7 -3 -12 1 -12 11 0 11 -40 1 -56 -4 -6 -4 -14 -1
-18 10 -10 10 -76 0 -76 -5 0 -5 -6 0 -12 4 -7 8 -31 8 -53 0 -22 4 -46 8 -52
5 -7 5 -13 2 -13 -10 0 36 -63 69 -93 17 -16 43 -31 59 -34 15 -3 27 -8 27
-12 0 -3 325 -6 723 -6 709 1 723 1 767 22 63 29 118 95 161 193 6 14 18 33
26 42 9 10 12 18 8 18 -4 0 -1 8 7 18 16 18 58 91 90 156 l20 38 19 -21 c11
-12 27 -37 34 -55 8 -19 18 -36 22 -38 5 -1 18 -23 30 -48 30 -58 57 -106 73
-125 7 -8 9 -15 5 -15 -4 0 7 -17 24 -39 17 -21 28 -40 26 -43 -9 -9 79 -78
108 -84 4 -1 8 -2 10 -4 1 -1 11 -4 22 -6 34 -8 1387 -7 1432 0 23 4 54 17 68
28 14 10 25 17 25 13 0 -4 11 7 25 23 39 47 61 105 60 161 -1 29 3 51 10 51 7
0 7 3 0 8 -12 8 -13 61 -3 78 4 6 4 14 1 18 -13 12 -14 48 -1 40 7 -5 8 -3 3
7 -12 19 -14 49 -3 55 5 3 5 11 0 17 -10 14 -10 87 1 103 3 6 3 14 0 18 -13
12 -14 48 -1 40 7 -5 8 -3 3 7 -12 19 -14 49 -3 55 5 3 5 11 0 17 -10 14 -10
87 1 103 3 6 3 14 0 18 -13 12 -14 48 -1 40 7 -5 8 -3 3 7 -12 18 -14 89 -3
95 5 3 5 11 1 17 -13 21 -14 49 -1 41 7 -5 8 -3 3 7 -12 19 -14 49 -3 55 5 3
5 11 0 17 -11 15 -9 87 2 106 6 9 5 12 -2 7 -14 -8 -11 56 3 66 6 5 6 8 -2 8
-12 0 -12 17 0 37 4 6 3 14 -1 17 -10 6 -9 86 1 102 3 6 3 14 0 18 -13 12 -14
48 -1 40 7 -5 8 -3 2 7 -12 20 -12 89 1 89 5 0 3 5 -5 10 -13 9 -13 11 0 20 8
5 10 10 4 10 -7 0 -15 19 -18 43 -7 49 -59 112 -116 143 -33 17 -72 18 -745
19 -390 0 -723 -2 -740 -5z m-922 -453 c15 -4 27 -14 27 -22 0 -8 3 -15 8 -15
4 0 18 -23 32 -51 13 -28 30 -55 37 -61 7 -6 13 -16 13 -24 0 -7 6 -19 13 -26
6 -7 20 -29 29 -48 20 -40 50 -93 59 -100 3 -3 14 -22 25 -44 10 -21 26 -52
35 -69 17 -32 13 -51 -18 -85 -7 -7 -13 -19 -13 -27 0 -7 -3 -15 -7 -17 -5 -1
-17 -21 -28 -43 -11 -22 -22 -42 -25 -45 -3 -3 -10 -14 -16 -25 -36 -68 -50
-91 -59 -97 -7 -5 -7 -8 0 -8 6 0 5 -3 -1 -8 -6 -4 -26 -35 -43 -68 -54 -105
-4 -96 -541 -96 -318 0 -475 4 -484 11 -16 13 -17 944 -1 960 6 5 19 11 29 13
37 6 901 1 929 -5z m2069 -5 c14 -14 19 -177 5 -208 -4 -11 -48 -45 -95 -75
-48 -29 -96 -62 -106 -71 -11 -10 -23 -18 -28 -18 -4 0 -46 -25 -94 -56 l-87
-56 26 -16 c15 -9 27 -20 27 -24 0 -5 4 -8 9 -8 9 0 110 -59 121 -70 3 -3 53
-36 113 -74 59 -37 111 -75 116 -84 4 -10 7 -46 6 -82 -1 -36 2 -70 6 -75 4
-6 0 -21 -10 -34 l-18 -24 -462 0 c-344 0 -468 4 -491 13 -16 7 -27 16 -24 21
3 5 0 9 -5 9 -6 0 -11 5 -11 11 0 6 -14 31 -30 56 -17 25 -44 71 -60 103 -16
32 -34 61 -40 65 -6 3 -8 11 -5 16 4 5 1 9 -4 9 -6 0 -11 5 -11 11 0 6 -22 48
-49 93 l-49 83 21 44 c12 24 25 46 28 49 4 3 21 32 38 65 18 33 46 83 62 110
17 28 33 58 36 68 3 9 9 17 14 17 5 0 9 5 9 11 0 6 9 24 21 40 11 16 18 29 15
29 -13 0 31 43 55 54 38 16 934 15 951 -2z"/>
</g>
</svg>
